<?xml version="1.0" encoding="iso-8859-1"?>
<!-- Uploaded to: SVG Repo, www.svgrepo.com, Generator: SVG Repo Mixer Tools -->
<svg class="svg-inline--fa fa-quote-left" aria-hidden="true" focusable="false" data-prefix="fad" data-icon="quote-left" role="img" xmlns="http://www.w3.org/2000/svg" viewBox="0 0 448 512" data-fa-i2svg=""><g class="fa-duotone-group">
	<path class="fa-secondary" style="fill:#116466;stroke:white;stroke-width:10" d="M376 96c-66.3 0-120 53.7-120 120v72 32 32c0 35.3 28.7 64 64 64h64c35.3 0 64-28.7 64-64V288c0-35.3-28.7-64-64-64H320v-8c0-30.9 25.1-56 56-56h8c17.7 0 32-14.3 32-32s-14.3-32-32-32h-8z"></path>

	<path class="fa-primary" style="fill:#116466;stroke:white;stroke-width:10" d="M120 96C53.7 96 0 149.7 0 216v72 32 32c0 35.3 28.7 64 64 64h64c35.3 0 64-28.7 64-64V288c0-35.3-28.7-64-64-64H64v-8c0-30.9 25.1-56 56-56h8c17.7 0 32-14.3 32-32s-14.3-32-32-32h-8z"></path></g></svg>